<svg xmlns="http://www.w3.org/2000/svg"  viewBox="0 0 100 100" width="100px" height="100px"><path d="M36.005,96.904c-4.369,0-8.792-3.254-8.792-9.472v-3.863c-3.263-1.438-6.099-3.248-8.461-5.404l-0.155-0.148 c-6.598-6.567-9.671-15.416-9.671-27.848l0-0.594c0-0.682-0.001-1.416,0.004-2.193c-0.005-0.686-0.005-1.421-0.004-2.103l0-0.599 c0-12.426,3.058-21.26,9.624-27.798l0.155-0.148c9.456-8.64,23.531-9.639,33.296-9.639c9.764,0,23.833,0.994,33.247,9.592 l0.156,0.148c6.598,6.567,9.671,15.416,9.671,27.847l0,0.596c0,0.683,0.001,1.416-0.004,2.193c0.005,0.686,0.005,1.422,0.004,2.104 l0,0.598c0,12.427-3.058,21.261-9.625,27.799l-0.156,0.148c-9.461,8.642-23.533,9.641-33.295,9.641 c-1.122,0-2.244-0.018-3.356-0.053c-5.261,5.883-5.507,6.102-5.865,6.419c-2.064,1.832-4.336,2.767-6.751,2.777h-0.011H36.005z" opacity=".35"/><path fill="#f2f2f2" d="M34.005,94.904c-4.369,0-8.792-3.254-8.792-9.472v-3.863c-3.263-1.438-6.099-3.248-8.461-5.404 l-0.155-0.148c-6.598-6.567-9.671-15.416-9.671-27.848l0-0.594c0-0.682-0.001-1.416,0.004-2.193 c-0.005-0.686-0.005-1.421-0.004-2.103l0-0.599c0-12.426,3.058-21.26,9.624-27.798l0.155-0.148 c9.456-8.64,23.531-9.639,33.296-9.639c9.764,0,23.833,0.994,33.247,9.592l0.156,0.148c6.598,6.567,9.671,15.416,9.671,27.847 l0,0.596c0,0.683,0.001,1.416-0.004,2.193c0.005,0.686,0.005,1.422,0.004,2.104l0,0.598c0,12.427-3.058,21.261-9.625,27.799 l-0.156,0.148c-9.461,8.642-23.533,9.641-33.295,9.641c-1.122,0-2.244-0.018-3.356-0.053c-5.261,5.883-5.507,6.102-5.865,6.419 c-2.064,1.832-4.336,2.767-6.751,2.777h-0.011H34.005z"/><path fill="#f2f2f2" d="M50.001,13.425c-4.826,0-19.513,0-27.633,7.414c-4.835,4.817-7.114,11.777-7.114,21.847v5.486 c0,10.069,2.279,17.03,7.171,21.901c2.436,2.222,5.757,3.998,9.817,5.225l1.3,0.391v9.744c0,1.143,0.331,1.143,0.441,1.143 c0.225,0,0.585-0.071,1.269-0.678c0.165-0.163,1.372-1.469,7.242-8.045l0.593-0.664l0.887,0.057 c1.966,0.123,3.994,0.187,6.028,0.187c4.826,0,19.513,0,27.633-7.416c4.833-4.817,7.114-11.777,7.114-21.845v-5.486 c0-10.069-2.279-17.03-7.171-21.901C69.514,13.425,54.827,13.425,50.001,13.425z"/><path fill="#707cc0" d="M67.285,57.048c-2.032-1.712-2.97-2.229-5.775-3.914c-1.169-0.7-2.95-1.306-3.884-1.306 c-0.638,0-1.403,0.488-1.871,0.956c-1.2,1.2-1.593,2.701-3.696,2.701c-2.057,0-5.651-2.094-8.229-4.801 c-2.707-2.579-4.801-6.172-4.801-8.229c0-2.103,1.474-2.524,2.674-3.725c0.468-0.466,0.984-1.231,0.984-1.869 c0-0.935-0.605-2.688-1.306-3.857c-1.684-2.807-2.2-3.745-3.914-5.775c-0.58-0.688-1.24-1.002-1.931-1.004 c-1.169-0.002-2.703,0.578-3.742,1.351c-1.562,1.165-3.195,2.75-3.632,4.726c-0.059,0.269-0.093,0.539-0.104,0.81 c-0.084,2.057,0.724,4.146,1.597,5.914c2.054,4.168,4.771,8.202,7.728,11.805c0.945,1.152,1.975,2.224,3.041,3.259 c1.035,1.064,2.107,2.094,3.259,3.041c3.603,2.957,7.637,5.675,11.805,7.728c1.752,0.863,3.815,1.657,5.852,1.598 c0.291-0.009,0.582-0.042,0.872-0.106c1.975-0.435,3.561-2.07,4.726-3.632c0.774-1.039,1.353-2.571,1.351-3.742 C68.287,58.288,67.972,57.628,67.285,57.048z M68.289,48.171c-1.009,0-1.829-0.819-1.829-1.829v-1.829 c0-9.074-7.385-16.459-16.459-16.459c-1.009,0-1.829-0.819-1.829-1.829s0.819-1.829,1.829-1.829 c11.092,0,20.117,9.025,20.117,20.117v1.829C70.117,47.352,69.298,48.171,68.289,48.171z M57.056,44.514 c-0.812,0-1.554-0.545-1.768-1.368c-0.501-1.922-2.001-3.423-3.915-3.917c-0.978-0.254-1.565-1.251-1.313-2.229 c0.252-0.977,1.247-1.564,2.229-1.313c3.197,0.828,5.702,3.332,6.538,6.536c0.254,0.978-0.331,1.975-1.308,2.231 C57.364,44.494,57.208,44.514,57.056,44.514z"/><path fill="#707cc0" d="M62.802,46.342c-1.009,0-1.829-0.819-1.829-1.829c0-5.83-4.561-10.64-10.384-10.947 c-1.009-0.053-1.783-0.914-1.73-1.922c0.053-1.009,0.929-1.785,1.922-1.73c7.767,0.41,13.849,6.823,13.849,14.599 C64.631,45.523,63.812,46.342,62.802,46.342z"/><path fill="#707cc0" d="M50.001,11.596c-8.229,0-21.053,0.757-28.865,7.893c-5.523,5.499-7.71,13.213-7.71,23.196 c0,0.827-0.004,1.748,0.004,2.743c-0.007,0.993-0.004,1.915-0.004,2.741c0,9.983,2.187,17.697,7.71,23.196 c2.974,2.716,6.682,4.502,10.578,5.68v8.387c0,2.919,1.918,2.972,2.27,2.972h0.016c0.903-0.004,1.684-0.446,2.467-1.141 c0.294-0.262,3.694-4.051,7.392-8.195c2.202,0.141,4.294,0.192,6.141,0.192l0,0l0,0c8.229,0,21.051-0.759,28.865-7.895 c5.521-5.497,7.71-13.213,7.71-23.196c0-0.827,0.004-1.748-0.004-2.743c0.007-0.995,0.004-1.915,0.004-2.743 c0-9.983-2.187-17.697-7.71-23.196C71.052,12.353,58.23,11.596,50.001,11.596z M81.09,47.533v0.636 c0,8.972-1.911,15.086-6.009,19.224c-7.099,6.381-20.623,6.381-25.082,6.381c-1.357,0-3.559-0.002-6.157-0.183 c-0.722,0.812-8.471,9.479-8.471,9.479V72.348c-3.848-0.924-7.65-2.438-10.45-4.952c-4.098-4.14-6.009-10.254-6.009-19.226v-0.636 c0-0.642-0.002-1.335,0.004-2.145c-0.005-0.732-0.005-1.423-0.004-2.067v-0.636c0-8.972,1.911-15.086,6.009-19.224 c7.097-6.381,20.623-6.381,25.08-6.381s17.981,0,25.078,6.381c4.1,4.139,6.009,10.252,6.009,19.224v0.636 c0,0.642,0.002,1.335-0.004,2.145C81.09,46.2,81.09,46.891,81.09,47.533z"/><path fill="#40396e" d="M34.005,89.904c-1.761,0-3.792-1.171-3.792-4.472v-7.29c-4.064-1.358-7.454-3.263-10.089-5.67 c-5.608-5.582-8.199-13.291-8.199-24.304l0-0.598c0-0.669-0.001-1.391,0.004-2.154c-0.005-0.743-0.005-1.465-0.004-2.134l0-0.599 c0-11.012,2.59-18.721,8.152-24.259c8.177-7.472,20.992-8.33,29.924-8.33c8.931,0,21.744,0.858,29.875,8.284 c5.608,5.582,8.199,13.29,8.199,24.303l0,0.6c0,0.67,0.001,1.391-0.004,2.154c0.005,0.743,0.005,1.466,0.004,2.135l0,0.598 c0,11.014-2.59,18.722-8.152,24.26c-8.182,7.473-20.994,8.332-29.923,8.332c-1.856,0-3.704-0.051-5.506-0.151 c-6.604,7.396-6.881,7.643-7.032,7.776C36.731,89.033,35.578,89.897,34.005,89.904z M50.001,13.096c-4.858,0-19.642,0-27.854,7.5 c-4.913,4.894-7.222,11.927-7.222,22.089l0,0.601c0,0.662-0.001,1.376,0.004,2.132c-0.005,0.776-0.005,1.49-0.004,2.151l0,0.601 c0,10.163,2.31,17.195,7.269,22.134c2.482,2.265,5.846,4.065,9.953,5.308l1.066,0.322v9.5c0,1.472,0.559,1.472,0.77,1.472 c0.299-0.001,0.729-0.089,1.487-0.763c0.168-0.164,1.367-1.459,7.269-8.072l0.486-0.545l0.729,0.047 c1.967,0.126,4.001,0.189,6.045,0.189c4.857,0,19.637,0,27.854-7.503c4.913-4.893,7.222-11.926,7.222-22.089l0-0.601 c0-0.661,0.001-1.375-0.004-2.132c0.005-0.777,0.005-1.489,0.004-2.151l0-0.603c0-10.162-2.31-17.194-7.269-22.133 C69.641,13.096,54.859,13.096,50.001,13.096z"/></svg>